<svg xmlns="http://www.w3.org/2000/svg" viewBox="0 0 567 604">
  <rect width="567" height="604" fill="white"/>
  <g fill="#0f3b67">
    <path d="M280.53 545.79 c-2.80 -1.03 -33.61 -38.35 -55.96 -67.67 -50.47 -66.42 -90.82 -131.46 -107.06 -172.56 -10.40 -26.29 -14.29 -44.81 -14.18 -68.07 0.06 -39.38 13.83 -76.65 40.01 -108.20 6.92 -8.34 21.09 -21.89 29.61 -28.29 47.33 -35.44 108.43 -45.61 165.13 -27.44 36.35 11.66 68.13 34.87 90.65 66.13 10.35 14.35 19.83 33.38 24.69 49.50 10.52 34.81 9.95 68.07 -1.77 103.17 -4.80 14.29 -16.40 39.72 -25.84 56.59 -25.49 45.55 -64.82 103.05 -104.88 153.47 -2.86 3.60 -7.77 9.77 -10.86 13.72 -3.14 3.94 -8.40 10.35 -11.72 14.29 -3.32 3.94 -7.43 8.86 -9.09 10.97 -1.83 2.29 -3.77 4.06 -4.80 4.46 -2 0.69 -1.89 0.69 -3.94 -0.06z m7.09 -25.78 c57.61 -69.67 113.51 -151.87 137.52 -202.22 20.41 -42.87 25.32 -77.16 16.40 -114.89 -8.63 -36.41 -31.78 -70.30 -63.73 -93.22 -26.69 -19.20 -61.50 -30.24 -95.40 -30.24 -37.27 0 -71.50 11.66 -101.91 34.69 -7.03 5.26 -19.43 17.20 -25.72 24.75 -13.89 16.58 -25.84 39.44 -31.27 60.07 -7.60 28.75 -6.69 57.16 2.86 87.16 12.46 39.32 52.81 106.71 106.48 177.99 16.98 22.58 48.36 61.73 49.44 61.73 0.29 0 2.63 -2.63 5.32 -5.83z"/>
    <path d="M270.18 490.01 c-7.03 -8.92 -37.15 -48.98 -48.18 -64.07 -2.80 -3.89 -6.69 -9.26 -8.63 -11.95 l-3.60 -4.92 0 -117.97 0 -117.92 33.15 0 33.15 0 0 54.30 c0 47.90 -0.11 54.30 -0.86 54.30 -0.74 0 -0.86 12.17 -0.86 106.03 0 67.16 -0.23 106.03 -0.57 106.03 -0.29 0 -1.89 -1.71 -3.60 -3.83z"/>
    <path d="M132.95 231.49 c-0.11 -0.17 0.06 -3.09 0.34 -6.57 2.11 -25.84 13.83 -54.19 31.49 -76.02 21.15 -26.12 51.96 -44.81 85.85 -51.96 7.94 -1.66 22.63 -3.37 23.26 -2.74 0.29 0.29 0.40 14.86 0.34 32.47 l-0.17 31.95 -39.55 0.17 -39.61 0.11 0 36.29 0 36.29 -22.98 0 c-12.69 0 -26.58 0.11 -30.92 0.17 -4.40 0.06 -8 0 -8.06 -0.17z"/>
  </g>
  <g fill="#a76b4b">
    <path d="M274.18 281.90 c0.06 -0.46 0.17 -25.09 0.17 -54.81 l0 -54.01 15.60 0.23 c16.58 0.29 19.38 0.69 27.84 4 8.57 3.32 18.40 11.03 23.78 18.52 10.69 14.98 13.20 35.44 6.40 52.24 -4.92 12.06 -14.75 22.29 -26.86 28.01 -9.60 4.46 -17.09 5.72 -34.81 5.72 -6.52 0 -11.95 0.17 -12.12 0.46 -0.11 0.23 -0.11 0.06 0 -0.34z"/>
    <path d="M365.81 224.29 c0 -8.75 -3.54 -21.03 -8.57 -30.01 -4.52 -8.06 -10 -14.40 -17.26 -20.01 -12.63 -9.77 -25.84 -14.46 -42.64 -15.20 l-8.12 -0.34 0 -32.52 0 -32.52 4.46 0.40 c27.61 2.29 52.18 10.80 74.36 25.84 7.60 5.14 13.09 9.72 20.41 16.98 19.26 19.09 33.15 43.78 38.87 68.99 1.20 5.26 3.09 18.63 3.09 21.72 0 0.97 -1.89 1.03 -32.29 1.03 l-32.29 0 0 -4.34z"/>
  </g>
  <g fill="#2e6347">
    <path d="M189.53 377.47 c-8.06 -12.52 -19.83 -32.47 -27.32 -46.13 -12.69 -23.21 -20.58 -41.78 -25.09 -59.27 -1.89 -7.14 -3.94 -19.38 -3.94 -23.26 l0 -2.46 30.75 0 30.69 0 0 69.45 c0 38.18 0 69.45 -0.06 69.45 -0.06 0 -2.34 -3.49 -5.03 -7.77z"/>
    <path d="M289.22 327.63 l0 -31.38 8.46 -0.34 c19.32 -0.80 34.92 -7.14 47.90 -19.43 8.75 -8.29 14.92 -17.89 18.18 -28.41 l1.54 -4.86 32.24 -0.06 32.29 -0.06 0 1.49 c0 2.23 -2 13.49 -3.37 18.75 -6.57 25.55 -22.52 49.21 -44.35 65.73 -25.09 18.98 -57.04 29.84 -88.14 29.89 l-4.74 0 0 -31.32z"/>
  </g>
  <g fill="#cbbbba">
    <path d="M289.22 433.82 l0 -60.59 2.74 0 c5.49 -0.06 19.66 -1.14 25.26 -2 23.26 -3.43 47.21 -12.69 66.59 -25.61 5.83 -3.89 13.77 -9.83 14.29 -10.69 0.17 -0.29 0.86 -0.86 1.54 -1.20 0.97 -0.51 0.63 0.34 -1.54 4.40 -15.32 28.29 -42.81 69.90 -72.02 109.11 -9.26 12.40 -31.67 41.21 -35.21 45.33 l-1.66 1.89 0 -60.64z"/>
    <path d="M272.01 492.30 l-1.37 -1.60 1.54 1.37 1.60 1.37 0.11 -105.97 0.17 -105.97 13.03 0 12.97 -0.06 -12.86 0.17 -12.86 0.17 0 106.03 c0 58.30 -0.23 106.03 -0.46 106.03 -0.29 0 -1.09 -0.69 -1.89 -1.54z"/>
    <path d="M194.16 384.84 c-0.17 -0.29 -0.06 -0.97 0.23 -1.60 0.40 -0.97 0.46 -0.97 0.46 0.46 0.06 1.54 -0.23 1.94 -0.69 1.14z"/>
    <path d="M194.51 368.38 c0 -1.26 0.11 -1.71 0.23 -0.97 0.11 0.69 0.11 1.71 0 2.29 -0.17 0.51 -0.29 -0.06 -0.23 -1.31z"/>
    <path d="M194.56 319.79 c0 -5.94 0.11 -8.34 0.17 -5.26 0.11 3.09 0.11 7.94 0 10.86 -0.06 2.92 -0.17 0.40 -0.17 -5.60z"/>
    <path d="M391.53 321.05 c0 -0.11 0.86 -0.91 1.89 -1.89 l1.83 -1.66 -1.66 1.89 c-1.60 1.71 -2.06 2.11 -2.06 1.66z"/>
    <path d="M397.24 315.22 c1.09 -1.09 2.06 -2 2.23 -2 0.17 0 -0.57 0.91 -1.66 2 -1.09 1.09 -2.06 2 -2.23 2 -0.17 0 0.57 -0.91 1.66 -2z"/>
    <path d="M194.56 298.36 c0 -3.32 0.06 -4.63 0.17 -2.97 0.11 1.60 0.11 4.34 0 6 -0.11 1.60 -0.17 0.29 -0.17 -3.03z"/>
    <path d="M194.45 284.64 c0 -1.09 0.11 -1.54 0.29 -0.97 0.11 0.51 0.11 1.43 0 2 -0.17 0.51 -0.29 0.06 -0.29 -1.03z"/>
    <path d="M366.78 243.09 c1.03 -0.11 2.86 -0.11 4 0 1.20 0.11 0.40 0.23 -1.83 0.23 -2.17 0 -3.14 -0.11 -2.17 -0.23z"/>
    <path d="M414.56 243.09 c1.49 -0.11 3.83 -0.11 5.14 0 1.31 0.11 0.11 0.17 -2.74 0.17 -2.80 0 -3.89 -0.06 -2.40 -0.17z"/>
    <path d="M423.94 243.09 c1.03 -0.11 2.86 -0.11 4 0 1.20 0.11 0.40 0.23 -1.83 0.23 -2.17 0 -3.14 -0.11 -2.17 -0.23z"/>
    <path d="M103.05 238.63 c0 -2.17 0.11 -3.03 0.23 -1.83 0.11 1.14 0.11 2.97 0 4 -0.11 0.97 -0.23 0.06 -0.23 -2.17z"/>
    <path d="M460.86 238.92 c0 -1.71 0.11 -2.46 0.23 -1.54 0.11 0.86 0.11 2.23 0 3.14 -0.11 0.86 -0.23 0.11 -0.23 -1.60z"/>
    <path d="M194.62 194.91 l0 -36.29 39.61 -0.17 39.55 -0.11 0 -31.95 0 -32.01 -1.26 -0.23 c-1.14 -0.29 -1.14 -0.29 0.11 -0.23 l1.43 0.11 0 32.29 0 32.29 -39.55 0.17 -39.61 0.11 -0.17 36.18 -0.11 36.12 0 -36.29z"/>
    <path d="M351.69 227.77 c0 -1.89 0.11 -2.57 0.23 -1.54 0.11 1.03 0.11 2.57 0 3.43 -0.11 0.86 -0.23 0 -0.23 -1.89z"/>
    <path d="M365.98 225.20 c0 -2.06 0.11 -2.86 0.23 -1.83 0.11 0.97 0.11 2.69 0 3.72 -0.11 0.97 -0.23 0.17 -0.23 -1.89z"/>
    <path d="M429.99 226.63 c0 -1.26 0.11 -1.71 0.23 -0.97 0.11 0.69 0.11 1.71 0 2.29 -0.17 0.51 -0.29 -0.06 -0.23 -1.31z"/>
    <path d="M338.03 191.93 l-1.66 -1.89 1.89 1.66 c1.71 1.60 2.11 2.06 1.66 2.06 -0.11 0 -0.91 -0.86 -1.89 -1.83z"/>
    <path d="M300.25 173.36 c0.51 -0.11 1.43 -0.11 2 0 0.51 0.17 0.06 0.29 -1.03 0.29 -1.09 0 -1.54 -0.11 -0.97 -0.29z"/>
    <path d="M301.96 159.07 c0.51 -0.11 1.43 -0.11 2 0 0.51 0.17 0.06 0.29 -1.03 0.29 -1.09 0 -1.54 -0.11 -0.97 -0.29z"/>
    <path d="M290.24 158.50 c0.69 -0.11 1.71 -0.11 2.29 0 0.51 0.17 -0.06 0.29 -1.31 0.23 -1.26 0 -1.71 -0.11 -0.97 -0.23z"/>
    <path d="M388.38 137.06 l-5.14 -5.32 5.32 5.14 c4.86 4.74 5.54 5.43 5.09 5.43 -0.06 0 -2.46 -2.40 -5.26 -5.26z"/>
    <path d="M174.90 137.46 c1.09 -1.09 2.06 -2 2.23 -2 0.17 0 -0.57 0.91 -1.66 2 -1.09 1.09 -2.06 2 -2.23 2 -0.17 0 0.57 -0.91 1.66 -2z"/>
    <path d="M398.39 127.06 l-6 -6.17 6.17 6 c3.37 3.26 6.12 6.06 6.12 6.12 0 0.46 -0.74 -0.29 -6.29 -5.94z"/>
    <path d="M164.61 127.75 c2.69 -2.69 4.97 -4.86 5.14 -4.86 0.11 0 -1.89 2.17 -4.57 4.86 -2.69 2.69 -4.97 4.86 -5.14 4.86 -0.11 0 1.89 -2.17 4.57 -4.86z"/>
    <path d="M296.82 94.48 c0.51 -0.11 1.43 -0.11 2 0 0.51 0.17 0.06 0.29 -1.03 0.29 -1.09 0 -1.54 -0.11 -0.97 -0.29z"/>
    <path d="M289.96 93.91 c0.51 -0.11 1.43 -0.11 2 0 0.51 0.17 0.06 0.29 -1.03 0.29 -1.09 0 -1.54 -0.11 -0.97 -0.29z"/>
    <path d="M275.10 64.76 c0.86 -0.11 2.11 -0.11 2.86 0 0.69 0.11 0 0.23 -1.60 0.23 -1.54 0 -2.17 -0.11 -1.26 -0.23z"/>
    <path d="M287.10 64.76 c0.86 -0.11 2.23 -0.11 3.14 0 0.86 0.11 0.11 0.23 -1.60 0.23 -1.71 0 -2.46 -0.11 -1.54 -0.23z"/>
  </g>
</svg>
