<?xml version="1.0" encoding="utf-8"?>
<svg version="1.1" xmlns="http://www.w3.org/2000/svg" width="567px" height="604px" viewBox="0 0 567 604" preserveAspectRatio="xMidYMid meet" shape-rendering="geometricPrecision">
 <g fill="#F0E8DA">
  <path d="M280.53 545.79 c-2.80 -1.03 -33.61 -38.35 -55.96 -67.67 -50.47 -66.42 -90.82 -131.46 -107.06 -172.56 -10.40 -26.29 -14.29 -44.81 -14.18 -68.07 0.06 -39.38 13.83 -76.65 40.01 -108.20 6.92 -8.34 21.09 -21.89 29.61 -28.29 47.33 -35.44 108.43 -45.61 165.13 -27.44 36.35 11.66 68.13 34.87 90.65 66.13 10.35 14.35 19.83 33.38 24.69 49.50 10.52 34.81 9.95 68.07 -1.77 103.17 -4.80 14.29 -16.40 39.72 -25.84 56.59 -25.49 45.55 -64.82 103.05 -104.88 153.47 -2.86 3.60 -7.77 9.77 -10.86 13.72 -3.14 3.94 -8.40 10.35 -11.72 14.29 -3.32 3.94 -7.43 8.86 -9.09 10.97 -1.83 2.29 -3.77 4.06 -4.80 4.46 -2 0.69 -1.89 0.69 -3.94 -0.06z m7.09 -25.78 c57.61 -69.67 113.51 -151.87 137.52 -202.22 20.41 -42.87 25.32 -77.16 16.40 -114.89 -8.63 -36.41 -31.78 -70.30 -63.73 -93.22 -26.69 -19.20 -61.50 -30.24 -95.40 -30.24 -37.27 0 -71.50 11.66 -101.91 34.69 -7.03 5.26 -19.43 17.20 -25.72 24.75 -13.89 16.58 -25.84 39.44 -31.27 60.07 -7.60 28.75 -6.69 57.16 2.86 87.16 12.46 39.32 52.81 106.71 106.48 177.99 16.98 22.58 48.36 61.73 49.44 61.73 0.29 0 2.63 -2.63 5.32 -5.83z"/>
  <path d="M270.18 490.01 c-7.03 -8.92 -37.15 -48.98 -48.18 -64.07 -2.80 -3.89 -6.69 -9.26 -8.63 -11.95 l-3.60 -4.92 0 -117.97 0 -117.92 33.15 0 33.15 0 0 54.30 c0 47.90 -0.11 54.30 -0.86 54.30 -0.74 0 -0.86 12.17 -0.86 106.03 0 67.16 -0.23 106.03 -0.57 106.03 -0.29 0 -1.89 -1.71 -3.60 -3.83z"/>
  <path d="M132.95 231.49 c-0.11 -0.17 0.06 -3.09 0.34 -6.57 2.11 -25.84 13.83 -54.19 31.49 -76.02 21.15 -26.12 51.96 -44.81 85.85 -51.96 7.94 -1.66 22.63 -3.37 23.26 -2.74 0.29 0.29 0.40 14.86 0.34 32.47 l-0.17 31.95 -39.55 0.17 -39.61 0.11 0 36.29 0 36.29 -22.98 0 c-12.69 0 -26.58 0.11 -30.92 0.17 -4.40 0.06 -8 0 -8.06 -0.17z"/>
 </g>
 <g fill="#E8B84E">
  <path d="M274.18 281.90 c0.06 -0.46 0.17 -25.09 0.17 -54.81 l0 -54.01 15.60 0.23 c16.58 0.29 19.38 0.69 27.84 4 8.57 3.32 18.40 11.03 23.78 18.52 10.69 14.98 13.20 35.44 6.40 52.24 -4.92 12.06 -14.75 22.29 -26.86 28.01 -9.60 4.46 -17.09 5.72 -34.81 5.72 -6.52 0 -11.95 0.17 -12.12 0.46 -0.11 0.23 -0.11 0.06 0 -0.34z"/>
  <path d="M365.81 224.29 c0 -8.75 -3.54 -21.03 -8.57 -30.01 -4.52 -8.06 -10 -14.40 -17.26 -20.01 -12.63 -9.77 -25.84 -14.46 -42.64 -15.20 l-8.12 -0.34 0 -32.52 0 -32.52 4.46 0.40 c27.61 2.29 52.18 10.80 74.36 25.84 7.60 5.14 13.09 9.72 20.41 16.98 19.26 19.09 33.15 43.78 38.87 68.99 1.20 5.26 3.09 18.63 3.09 21.72 0 0.97 -1.89 1.03 -32.29 1.03 l-32.29 0 0 -4.34z"/>
 </g>
 <g fill="#C9A46C">
  <path d="M189.53 377.47 c-8.06 -12.52 -19.83 -32.47 -27.32 -46.13 -12.69 -23.21 -20.58 -41.78 -25.09 -59.27 -1.89 -7.14 -3.94 -19.38 -3.94 -23.26 l0 -2.46 30.75 0 30.69 0 0 69.45 c0 38.18 0 69.45 -0.06 69.45 -0.06 0 -2.34 -3.49 -5.03 -7.77z"/>
  <path d="M289.22 327.63 l0 -31.38 8.46 -0.34 c19.32 -0.80 34.92 -7.14 47.90 -19.43 8.75 -8.29 14.92 -17.89 18.18 -28.41 l1.54 -4.86 32.24 -0.06 32.29 -0.06 0 1.49 c0 2.23 -2 13.49 -3.37 18.75 -6.57 25.55 -22.52 49.21 -44.35 65.73 -25.09 18.98 -57.04 29.84 -88.14 29.89 l-4.74 0 0 -31.32z"/>
 </g>
</svg>
